# xmcd CD database file
#
# Track frame offsets:
#	150
#	12204
#	23403
#	37565
#	51654
#	64576
#	79913
#	94873
#
# Disc length: 1455 seconds
#
# Revision: 1
# Processed by: cddbd v1.5.2PL0 Copyright (c) Steve Scherf et al.
# Submitted via: CDex 1.70beta2
#
DISCID=5405ad08
DTITLE=Louis Armstrong - Swing Time 1
DYEAR=2005
DGENRE=Jazz
TTITLE0=Swing,You Cats
TTITLE1=Canal Street Blues
TTITLE2=What's This Thing Called Swing
TTITLE3=I'll Get Mine Bye And Bye
TTITLE4=Song Of The Vipers
TTITLE5=Chicago Breakdown
TTITLE6=Wolverin Blues
TTITLE7=Body And Soul
EXTD=YEAR: 2005
EXTT0=
EXTT1=
EXTT2=
EXTT3=
EXTT4=
EXTT5=
EXTT6=
EXTT7=
PLAYORDER=
